<?xml version="1.0" encoding="UTF-8" standalone="no"?>
<!-- Created with Inkscape (http://www.inkscape.org/) -->

<svg
   xmlns:dc="http://purl.org/dc/elements/1.1/"
   xmlns:cc="http://creativecommons.org/ns#"
   xmlns:rdf="http://www.w3.org/1999/02/22-rdf-syntax-ns#"
   xmlns:svg="http://www.w3.org/2000/svg"
   xmlns="http://www.w3.org/2000/svg"
   xmlns:sodipodi="http://sodipodi.sourceforge.net/DTD/sodipodi-0.dtd"
   xmlns:inkscape="http://www.inkscape.org/namespaces/inkscape"
   width="84.666664mm"
   height="25.4mm"
   viewBox="0 0 84.666664 25.4"
   version="1.1"
   id="svg8"
   inkscape:version="0.92.4 (5da689c313, 2019-01-14)"
   sodipodi:docname="jstreeIconSet.svg">
  <defs
     id="defs2" />
  <sodipodi:namedview
     id="base"
     pagecolor="#ffffff"
     bordercolor="#666666"
     borderopacity="1.0"
     inkscape:pageopacity="0.0"
     inkscape:pageshadow="2"
     inkscape:zoom="2.9344932"
     inkscape:cx="102.76665"
     inkscape:cy="37.259987"
     inkscape:document-units="mm"
     inkscape:current-layer="layer1"
     showgrid="false"
     inkscape:snap-global="false"
     inkscape:window-width="1920"
     inkscape:window-height="1017"
     inkscape:window-x="-8"
     inkscape:window-y="-8"
     inkscape:window-maximized="1"
     fit-margin-top="0"
     fit-margin-left="0"
     fit-margin-right="0"
     fit-margin-bottom="0" />
  <metadata
     id="metadata5">
    <rdf:RDF>
      <cc:Work
         rdf:about="">
        <dc:format>image/svg+xml</dc:format>
        <dc:type
           rdf:resource="http://purl.org/dc/dcmitype/StillImage" />
        <dc:title></dc:title>
      </cc:Work>
    </rdf:RDF>
  </metadata>
  <g
     inkscape:label="Ebene 1"
     inkscape:groupmode="layer"
     id="layer1"
     transform="translate(-51.121532,-91.19204)">
    <rect
       style="fill:#000000;fill-opacity:0;stroke:none;stroke-width:2.10475612;stroke-linecap:round;stroke-miterlimit:4;stroke-dasharray:none;stroke-opacity:1;paint-order:normal"
       id="rect2188"
       width="84.666664"
       height="25.388205"
       x="51.121532"
       y="91.203835"
       inkscape:export-xdpi="96"
       inkscape:export-ydpi="96"
       inkscape:export-filename="C:\Users\hoelznerm\Desktop\32px.png" />
    <path
       style="fill:#a7a7a7;fill-opacity:1;stroke:none;stroke-width:0.76959777;stroke-linecap:round;stroke-miterlimit:4;stroke-dasharray:none;stroke-opacity:1;paint-order:normal"
       d="m 88.977131,91.19204 v 0.265149 h 0.26527 V 91.19204 Z m 0,0.5303 v 0.265152 h 0.26527 V 91.72234 Z m 0,0.530302 v 0.26515 h 0.26527 v -0.26515 z m 0,0.530302 v 0.26515 h 0.26527 v -0.26515 z m 0,0.5303 v 0.265152 h 0.26527 v -0.265152 z m 0,0.530303 v 0.26515 h 0.26527 v -0.26515 z m 0,0.5303 v 0.265151 h 0.26527 v -0.265151 z m 1.59165,1.060603 v 0.265151 h 0.26527 V 95.43445 Z m 0.53054,0 v 0.265151 h 0.26528 V 95.43445 Z m 0.53062,0 v 0.265151 h 0.26527 V 95.43445 Z m 0.53054,0 v 0.265151 h 0.26528 V 95.43445 Z m 0.53055,0 v 0.265151 h 0.26528 V 95.43445 Z"
       id="rect1024"
       inkscape:connector-curvature="0"
       inkscape:export-xdpi="96"
       inkscape:export-ydpi="96"
       inkscape:export-filename="C:\Users\hoelznerm\Desktop\32px.png" />
    <path
       style="fill:#a7a7a7;fill-opacity:1;stroke:none;stroke-width:0.76959777;stroke-linecap:round;stroke-miterlimit:4;stroke-dasharray:none;stroke-opacity:1;paint-order:normal"
       d="m 80.488351,91.19204 v 0.265149 h 0.26527 V 91.19204 Z m 0,0.5303 v 0.265152 h 0.26527 V 91.72234 Z m 0,0.530302 v 0.26515 h 0.26527 v -0.26515 z m 0,0.530302 v 0.26515 h 0.26527 v -0.26515 z m 0,0.5303 v 0.265152 h 0.26527 v -0.265152 z m 0,0.530303 v 0.26515 h 0.26527 v -0.26515 z m 0,0.5303 v 0.265151 h 0.26527 v -0.265151 z m 1.59165,1.060538 v 0.265151 h 0.26527 v -0.265151 z m 0.53054,0 v 0.265151 h 0.26528 v -0.265151 z m 0.53055,0 v 0.265151 h 0.26528 v -0.265151 z m 0.53055,0 v 0.265151 h 0.26528 v -0.265151 z m 0.53061,0 v 0.265151 h 0.26528 v -0.265151 z"
       id="path2258"
       inkscape:connector-curvature="0"
       inkscape:export-xdpi="96"
       inkscape:export-ydpi="96"
       inkscape:export-filename="C:\Users\hoelznerm\Desktop\32px.png" />
    <path
       style="fill:#a7a7a7;fill-opacity:1;stroke:none;stroke-width:0.76959777;stroke-linecap:round;stroke-miterlimit:4;stroke-dasharray:none;stroke-opacity:1;paint-order:normal"
       d="m 80.753621,99.676857 v 0.265151 h 0.26528 v -0.265151 z m 0,0.530303 v 0.26515 h 0.26528 v -0.26515 z m 0,0.5303 v 0.26515 h 0.26528 v -0.26515 z m 0,0.5303 v 0.26515 h 0.26528 v -0.26515 z m 0,0.5303 v 0.26515 h 0.26528 v -0.26515 z m 0,0.5303 v 0.26515 h 0.26528 v -0.26515 z m 0,0.5303 v 0.26515 h 0.26528 v -0.26515 z m -3.71384,1.06054 v 0.26515 h 0.26528 v -0.26515 z m 0.53055,0 v 0.26515 h 0.26528 v -0.26515 z m 0.53055,0 v 0.26515 h 0.26527 v -0.26515 z m 0.53061,0 v 0.26515 h 0.26528 v -0.26515 z m 0.53055,0 v 0.26515 h 0.26528 v -0.26515 z m 0.53055,0 v 0.26515 h 0.26527 v -0.26515 z"
       id="rect1064"
       inkscape:connector-curvature="0"
       inkscape:export-xdpi="96"
       inkscape:export-ydpi="96"
       inkscape:export-filename="C:\Users\hoelznerm\Desktop\32px.png" />
    <path
       style="fill:#a7a7a7;fill-opacity:1;stroke:none;stroke-width:0.76959777;stroke-linecap:round;stroke-miterlimit:4;stroke-dasharray:none;stroke-opacity:1;paint-order:normal"
       d="m 89.242401,99.676857 v 0.265151 h 0.26528 v -0.265151 z m 0,0.530303 v 0.26515 h 0.26528 v -0.26515 z m 0,0.5303 v 0.26515 h 0.26528 v -0.26515 z m 0,0.5303 v 0.26515 h 0.26528 v -0.26515 z m 0,0.5303 v 0.26515 h 0.26528 v -0.26515 z m 0,0.5303 v 0.26515 h 0.26528 v -0.26515 z m 0,0.5303 v 0.26515 h 0.26528 v -0.26515 z m -3.71384,1.06054 v 0.26515 h 0.26527 v -0.26515 z m 0.53055,0 v 0.26515 h 0.26528 v -0.26515 z m 0.53055,0 v 0.26515 h 0.26527 v -0.26515 z m 0.53061,0 v 0.26515 h 0.26527 v -0.26515 z m 0.53055,0 v 0.26515 h 0.26527 v -0.26515 z m 0.53055,0 v 0.26515 h 0.26527 v -0.26515 z"
       id="rect1094"
       inkscape:connector-curvature="0"
       inkscape:export-xdpi="96"
       inkscape:export-ydpi="96"
       inkscape:export-filename="C:\Users\hoelznerm\Desktop\32px.png" />
    <path
       style="fill:#a7a7a7;fill-opacity:1;stroke:none;stroke-width:0.76959777;stroke-linecap:round;stroke-miterlimit:4;stroke-dasharray:none;stroke-opacity:1;paint-order:normal"
       d="m 72.264851,99.676857 v 0.265151 h 0.26527 v -0.265151 z m 0,0.530303 v 0.26515 h 0.26527 v -0.26515 z m 0,0.5303 v 0.26515 h 0.26527 v -0.26515 z m 0,0.5303 v 0.26515 h 0.26527 v -0.26515 z m 0,0.5303 v 0.26515 h 0.26527 v -0.26515 z m 0,0.5303 v 0.26515 h 0.26527 v -0.26515 z m 0,0.5303 v 0.26515 h 0.26527 v -0.26515 z m 0,0.53031 v 0.26515 h 0.26527 v -0.26515 z m -3.71378,0.53023 v 0.26515 h 0.26527 v -0.26515 z m 0.53055,0 v 0.26515 h 0.26527 v -0.26515 z m 0.53055,0 v 0.26515 h 0.26527 v -0.26515 z m 0.53054,0 v 0.26515 h 0.26528 v -0.26515 z m 0.53055,0 v 0.26515 h 0.26528 v -0.26515 z m 0.53055,0 v 0.26515 h 0.26528 v -0.26515 z m 0.53055,0 v 0.26515 h 0.26527 v -0.26515 z m 0.53049,7e-5 v 0.26515 h 0.26527 v -0.26515 z"
       id="rect1108"
       inkscape:connector-curvature="0"
       inkscape:export-xdpi="96"
       inkscape:export-ydpi="96"
       inkscape:export-filename="C:\Users\hoelznerm\Desktop\32px.png" />
    <path
       style="fill:#a7a7a7;fill-opacity:1;stroke:none;stroke-width:0.76959777;stroke-linecap:round;stroke-miterlimit:4;stroke-dasharray:none;stroke-opacity:1;paint-order:normal"
       d="m 71.999571,91.19204 v 0.265149 h 0.26528 V 91.19204 Z m 0,0.5303 v 0.265152 h 0.26528 V 91.72234 Z m 0,0.530302 v 0.26515 h 0.26528 v -0.26515 z m 0,0.530302 v 0.26515 h 0.26528 v -0.26515 z m 0,0.5303 v 0.265152 h 0.26528 v -0.265152 z m 0,0.530303 v 0.26515 h 0.26528 v -0.26515 z m 0,0.5303 v 0.265151 h 0.26528 v -0.265151 z m 0,0.530237 v 0.265151 h 0.26528 v -0.265151 z m 0,0.530366 v 0.265151 h 0.26528 V 95.43445 Z m 0.53055,0 v 0.265151 h 0.26527 V 95.43445 Z m 0.53061,0 v 0.265151 h 0.26527 V 95.43445 Z m 0.53055,0 v 0.265151 h 0.26527 V 95.43445 Z m 0.53055,0 v 0.265151 h 0.26527 V 95.43445 Z m 0.53055,0 v 0.265151 h 0.26527 V 95.43445 Z m 0.53055,0 v 0.265151 h 0.26527 V 95.43445 Z m 0.53054,0 v 0.265151 h 0.26528 V 95.43445 Z"
       id="rect1122"
       inkscape:connector-curvature="0"
       inkscape:export-xdpi="96"
       inkscape:export-ydpi="96"
       inkscape:export-filename="C:\Users\hoelznerm\Desktop\32px.png" />
    <path
       sodipodi:type="star"
       style="fill:none;fill-opacity:1;stroke:#a7a7a7;stroke-width:2.58426404;stroke-linecap:round;stroke-miterlimit:4;stroke-dasharray:none;stroke-opacity:1;paint-order:normal"
       id="path2144"
       sodipodi:sides="3"
       sodipodi:cx="277.90729"
       sodipodi:cy="252.26331"
       sodipodi:r1="8.2087479"
       sodipodi:r2="4.1043744"
       sodipodi:arg1="0"
       sodipodi:arg2="1.0471976"
       inkscape:flatsided="true"
       inkscape:rounded="0"
       inkscape:randomized="0"
       d="m 286.11604,252.26331 -12.31313,7.10898 v -14.21797 z"
       inkscape:transform-center-x="-0.20126861"
       inkscape:transform-center-y="-2.5996637e-06"
       transform="matrix(0.09807723,0,0,0.15569482,28.830994,56.293759)"
       inkscape:export-xdpi="96"
       inkscape:export-ydpi="96"
       inkscape:export-filename="C:\Users\hoelznerm\Desktop\32px.png" />
    <path
       transform="matrix(-0.09812077,0,0,-0.15568916,83.888001,143.32931)"
       inkscape:transform-center-x="0.20136734"
       d="m 286.11604,252.26331 -12.31313,7.10898 v -14.21797 z"
       inkscape:randomized="0"
       inkscape:rounded="0"
       inkscape:flatsided="true"
       sodipodi:arg2="1.0471976"
       sodipodi:arg1="0"
       sodipodi:r2="4.1043744"
       sodipodi:r1="8.2087479"
       sodipodi:cy="252.26331"
       sodipodi:cx="277.90729"
       sodipodi:sides="3"
       id="path2146"
       style="fill:#a7a7a7;fill-opacity:1;stroke:#a7a7a7;stroke-width:2.58464122;stroke-linecap:round;stroke-miterlimit:4;stroke-dasharray:none;stroke-opacity:1;paint-order:normal"
       sodipodi:type="star"
       inkscape:export-xdpi="96"
       inkscape:export-ydpi="96"
       inkscape:export-filename="C:\Users\hoelznerm\Desktop\32px.png"
       inkscape:transform-center-y="1.7550885e-06" />
    <path
       style="fill:#a7a7a7;fill-opacity:1;stroke:#a7a7a7;stroke-width:0.31718808;stroke-linecap:round;stroke-miterlimit:4;stroke-dasharray:none;stroke-opacity:1;paint-order:normal"
       d="m 65.492293,94.239851 v 1.839513 h -1.839874 z"
       id="rect2150"
       inkscape:connector-curvature="0"
       sodipodi:nodetypes="cccc"
       inkscape:export-xdpi="96"
       inkscape:export-ydpi="96"
       inkscape:export-filename="C:\Users\hoelznerm\Desktop\32px.png" />
    <path
       sodipodi:nodetypes="cccc"
       inkscape:connector-curvature="0"
       id="path2153"
       d="M 89.898629,94.239789 V 96.07932 H 88.057773 Z"
       style="fill:#a7a7a7;fill-opacity:1;stroke:#a7a7a7;stroke-width:0.31727445;stroke-linecap:round;stroke-miterlimit:4;stroke-dasharray:none;stroke-opacity:1;paint-order:normal"
       inkscape:export-xdpi="96"
       inkscape:export-ydpi="96"
       inkscape:export-filename="C:\Users\hoelznerm\Desktop\32px.png" />
    <path
       style="fill:#a7a7a7;fill-opacity:1;stroke:#a7a7a7;stroke-width:0.31721953;stroke-linecap:round;stroke-miterlimit:4;stroke-dasharray:none;stroke-opacity:1;paint-order:normal"
       d="m 90.422505,104.55957 h -1.840362 v -1.8394 z"
       id="path2155"
       inkscape:connector-curvature="0"
       sodipodi:nodetypes="cccc"
       inkscape:export-xdpi="96"
       inkscape:export-ydpi="96"
       inkscape:export-filename="C:\Users\hoelznerm\Desktop\32px.png" />
    <path
       sodipodi:nodetypes="cccc"
       inkscape:connector-curvature="0"
       id="path2157"
       d="m 66.016924,104.55951 h -1.839977 v -1.84102 z"
       style="fill:#a7a7a7;fill-opacity:1;stroke:#a7a7a7;stroke-width:0.31732762;stroke-linecap:round;stroke-miterlimit:4;stroke-dasharray:none;stroke-opacity:1;paint-order:normal"
       inkscape:export-xdpi="96"
       inkscape:export-ydpi="96"
       inkscape:export-filename="C:\Users\hoelznerm\Desktop\32px.png" />
    <path
       sodipodi:type="star"
       style="fill:#a7a7a7;fill-opacity:1;stroke:#a7a7a7;stroke-width:2.58464122;stroke-linecap:round;stroke-miterlimit:4;stroke-dasharray:none;stroke-opacity:1;paint-order:normal"
       id="path2159"
       sodipodi:sides="3"
       sodipodi:cx="277.90729"
       sodipodi:cy="252.26331"
       sodipodi:r1="8.2087479"
       sodipodi:r2="4.1043744"
       sodipodi:arg1="0"
       sodipodi:arg2="1.0471976"
       inkscape:flatsided="true"
       inkscape:rounded="0"
       inkscape:randomized="0"
       d="m 286.11604,252.26331 -12.31313,7.10898 v -14.21797 z"
       inkscape:transform-center-x="0.20135809"
       transform="matrix(-0.09812077,0,0,-0.15568916,108.29326,143.32931)"
       inkscape:export-xdpi="96"
       inkscape:export-ydpi="96"
       inkscape:export-filename="C:\Users\hoelznerm\Desktop\32px.png"
       inkscape:transform-center-y="1.7550885e-06" />
    <path
       style="fill:none;fill-opacity:1;stroke:#adadad;stroke-width:0.34592476;stroke-linecap:round;stroke-miterlimit:4;stroke-dasharray:none;stroke-opacity:1;paint-order:normal"
       d="m 82.366869,111.28796 v 0 l -1.412396,0.82585 -1.412407,-0.82585"
       id="path2172"
       inkscape:connector-curvature="0"
       sodipodi:nodetypes="cccc"
       inkscape:export-xdpi="96"
       inkscape:export-ydpi="96"
       inkscape:export-filename="C:\Users\hoelznerm\Desktop\32px.png" />
    <path
       inkscape:connector-curvature="0"
       style="fill:none;fill-opacity:1;stroke:#adadad;stroke-width:0.34592476;stroke-linecap:round;stroke-miterlimit:4;stroke-dasharray:none;stroke-opacity:1;paint-order:normal"
       inkscape:transform-center-x="3.1483287e-06"
       d="m 82.366869,112.94593 -1.412396,0.82585 -1.412397,-0.82585 v -1.65169 l 1.412397,-0.82585 1.412396,0.82585 z"
       id="path2165"
       inkscape:export-xdpi="96"
       inkscape:export-ydpi="96"
       inkscape:export-filename="C:\Users\hoelznerm\Desktop\32px.png"
       inkscape:transform-center-y="1.900083e-06" />
    <path
       style="fill:none;fill-opacity:1;stroke:#adadad;stroke-width:0.34592476;stroke-linecap:round;stroke-miterlimit:4;stroke-dasharray:none;stroke-opacity:1;paint-order:normal"
       d="m 80.954473,113.77178 v -1.65171"
       id="path2179"
       inkscape:connector-curvature="0"
       sodipodi:nodetypes="cc"
       inkscape:export-xdpi="96"
       inkscape:export-ydpi="96"
       inkscape:export-filename="C:\Users\hoelznerm\Desktop\32px.png" />
    <path
       transform="matrix(0.09807442,0,0,0.15568941,53.237018,56.295175)"
       inkscape:transform-center-x="-0.20126833"
       d="m 286.11604,252.26331 -12.31313,7.10898 v -14.21797 z"
       inkscape:randomized="0"
       inkscape:rounded="0"
       inkscape:flatsided="true"
       sodipodi:arg2="1.0471976"
       sodipodi:arg1="0"
       sodipodi:r2="4.1043744"
       sodipodi:r1="8.2087479"
       sodipodi:cy="252.26331"
       sodipodi:cx="277.90729"
       sodipodi:sides="3"
       id="path2186"
       style="fill:none;fill-opacity:1;stroke:#a7a7a7;stroke-width:2.58464122;stroke-linecap:round;stroke-miterlimit:4;stroke-dasharray:none;stroke-opacity:1;paint-order:normal"
       sodipodi:type="star"
       inkscape:export-xdpi="96"
       inkscape:export-ydpi="96"
       inkscape:export-filename="C:\Users\hoelznerm\Desktop\32px.png" />
    <path
       style="fill:none;stroke:#a7a7a7;stroke-width:1.04232407;stroke-linecap:round;stroke-linejoin:miter;stroke-miterlimit:4;stroke-dasharray:none;stroke-opacity:1"
       d="m 54.105369,112.419 0.850959,0.79706 2.064938,-1.93412"
       id="path2190"
       inkscape:connector-curvature="0"
       sodipodi:nodetypes="ccc"
       inkscape:export-xdpi="96"
       inkscape:export-ydpi="96"
       inkscape:export-filename="C:\Users\hoelznerm\Desktop\32px.png" />
    <path
       sodipodi:nodetypes="ccc"
       inkscape:connector-curvature="0"
       id="path2192"
       d="m 113.79626,95.341699 0.55588,0.604502 1.34888,-1.466867"
       style="fill:none;stroke:#3173b2;stroke-width:0.73365772;stroke-linecap:round;stroke-linejoin:miter;stroke-miterlimit:4;stroke-dasharray:none;stroke-opacity:1"
       inkscape:export-xdpi="96"
       inkscape:export-ydpi="96"
       inkscape:export-filename="C:\Users\hoelznerm\Desktop\32px.png" />
    <path
       style="color:#000000;font-style:normal;font-variant:normal;font-weight:normal;font-stretch:normal;font-size:medium;line-height:normal;font-family:sans-serif;font-variant-ligatures:normal;font-variant-position:normal;font-variant-caps:normal;font-variant-numeric:normal;font-variant-alternates:normal;font-feature-settings:normal;text-indent:0;text-align:start;text-decoration:none;text-decoration-line:none;text-decoration-style:solid;text-decoration-color:#000000;letter-spacing:normal;word-spacing:normal;text-transform:none;writing-mode:lr-tb;direction:ltr;text-orientation:mixed;dominant-baseline:auto;baseline-shift:baseline;text-anchor:start;white-space:normal;shape-padding:0;clip-rule:nonzero;display:inline;overflow:visible;visibility:visible;opacity:1;isolation:auto;mix-blend-mode:normal;color-interpolation:sRGB;color-interpolation-filters:linearRGB;solid-color:#000000;solid-opacity:1;vector-effect:none;fill:#a7a7a7;fill-opacity:1;fill-rule:nonzero;stroke:none;stroke-width:1.02505994;stroke-linecap:round;stroke-linejoin:miter;stroke-miterlimit:4;stroke-dasharray:none;stroke-dashoffset:0;stroke-opacity:1;color-rendering:auto;image-rendering:auto;shape-rendering:auto;text-rendering:auto;enable-background:accumulate"
       d="m 62.749821,110.84849 a 0.51258152,0.51258102 0 0 0 -0.356757,0.87963 l 0.707851,0.70785 -0.707851,0.70784 a 0.51258152,0.51258102 0 1 0 0.724841,0.72484 l 0.70785,-0.70785 0.707852,0.70785 a 0.51258152,0.51258102 0 1 0 0.72484,-0.72484 l -0.707851,-0.70784 0.707851,-0.70785 a 0.51258152,0.51258102 0 1 0 -0.72484,-0.72484 l -0.707852,0.70785 -0.70785,-0.70785 a 0.51258152,0.51258102 0 0 0 -0.368084,-0.15479 z"
       id="path2198"
       inkscape:connector-curvature="0"
       inkscape:export-filename="C:\Users\hoelznerm\Desktop\32px.png"
       inkscape:export-xdpi="96"
       inkscape:export-ydpi="96" />
    <rect
       style="fill:#a7a7a7;fill-opacity:1;stroke:none;stroke-width:0.48819581;stroke-linecap:round;stroke-miterlimit:4;stroke-dasharray:none;stroke-opacity:1;paint-order:normal"
       id="rect2205"
       width="3.96875"
       height="3.175"
       x="121.239"
       y="94.103188"
       rx="0.25122672"
       ry="0.25123248"
       inkscape:export-xdpi="96"
       inkscape:export-ydpi="96"
       inkscape:export-filename="C:\Users\hoelznerm\Desktop\32px.png" />
    <rect
       ry="0.12732929"
       rx="0.1259589"
       y="93.314522"
       x="121.5013"
       height="0.52916664"
       width="1.5875"
       id="rect2207"
       style="fill:#a7a7a7;fill-opacity:1;stroke:none;stroke-width:0.12605163;stroke-linecap:round;stroke-miterlimit:4;stroke-dasharray:none;stroke-opacity:1;paint-order:normal"
       inkscape:export-xdpi="96"
       inkscape:export-ydpi="96"
       inkscape:export-filename="C:\Users\hoelznerm\Desktop\32px.png" />
    <rect
       style="fill:none;fill-opacity:1;stroke:#a7a7a7;stroke-width:0.34472379;stroke-linecap:round;stroke-miterlimit:4;stroke-dasharray:none;stroke-opacity:1;paint-order:normal"
       id="rect2209"
       width="3.6240261"
       height="3.6240263"
       x="96.025299"
       y="93.486382"
       rx="0.12607531"
       ry="0.12538408"
       inkscape:export-xdpi="96"
       inkscape:export-ydpi="96"
       inkscape:export-filename="C:\Users\hoelznerm\Desktop\32px.png" />
    <rect
       ry="0.12538406"
       rx="0.12607531"
       y="93.486382"
       x="104.44778"
       height="3.6240263"
       width="3.6240263"
       id="rect2217"
       style="fill:none;fill-opacity:1;stroke:#a7a7a7;stroke-width:0.34472379;stroke-linecap:round;stroke-miterlimit:4;stroke-dasharray:none;stroke-opacity:1;paint-order:normal"
       inkscape:export-xdpi="96"
       inkscape:export-ydpi="96"
       inkscape:export-filename="C:\Users\hoelznerm\Desktop\32px.png" />
    <rect
       style="fill:#a7a7a7;fill-opacity:1;stroke:#a7a7a7;stroke-width:0.19992396;stroke-linecap:round;stroke-miterlimit:4;stroke-dasharray:none;stroke-opacity:1;paint-order:normal"
       id="rect2219"
       width="2.0964875"
       height="2.1070633"
       x="105.20021"
       y="94.247124"
       rx="0.072934158"
       ry="0.072900169"
       inkscape:export-xdpi="96"
       inkscape:export-ydpi="96"
       inkscape:export-filename="C:\Users\hoelznerm\Desktop\32px.png" />
    <rect
       style="fill:none;fill-opacity:1;stroke:#a7a7a7;stroke-width:0.34472379;stroke-linecap:round;stroke-miterlimit:4;stroke-dasharray:none;stroke-opacity:1;paint-order:normal"
       id="rect2221"
       width="3.6240261"
       height="3.6240263"
       x="112.93662"
       y="93.486382"
       rx="0.12607531"
       ry="0.12538408"
       inkscape:export-xdpi="96"
       inkscape:export-ydpi="96"
       inkscape:export-filename="C:\Users\hoelznerm\Desktop\32px.png" />
    <path
       style="fill:none;stroke:#3173b2;stroke-width:0.733657;stroke-linecap:round;stroke-linejoin:miter;stroke-miterlimit:4;stroke-dasharray:none;stroke-opacity:1"
       d="m 113.79626,103.76022 0.55588,0.6045 1.34888,-1.46686"
       id="path2223"
       inkscape:connector-curvature="0"
       sodipodi:nodetypes="ccc"
       inkscape:export-xdpi="96"
       inkscape:export-ydpi="96"
       inkscape:export-filename="C:\Users\hoelznerm\Desktop\32px.png" />
    <rect
       ry="0.12538408"
       rx="0.12607531"
       y="101.90491"
       x="96.025299"
       height="3.6240263"
       width="3.6240261"
       id="rect2225"
       style="fill:none;fill-opacity:1;stroke:#a7a7a7;stroke-width:0.34472379;stroke-linecap:round;stroke-miterlimit:4;stroke-dasharray:none;stroke-opacity:1;paint-order:normal"
       inkscape:export-xdpi="96"
       inkscape:export-ydpi="96"
       inkscape:export-filename="C:\Users\hoelznerm\Desktop\32px.png" />
    <rect
       style="fill:none;fill-opacity:1;stroke:#a7a7a7;stroke-width:0.34472379;stroke-linecap:round;stroke-miterlimit:4;stroke-dasharray:none;stroke-opacity:1;paint-order:normal"
       id="rect2227"
       width="3.6240261"
       height="3.6240263"
       x="104.44779"
       y="101.90491"
       rx="0.12607531"
       ry="0.12538408"
       inkscape:export-xdpi="96"
       inkscape:export-ydpi="96"
       inkscape:export-filename="C:\Users\hoelznerm\Desktop\32px.png" />
    <rect
       ry="0.072900169"
       rx="0.072934158"
       y="102.66566"
       x="105.20021"
       height="2.1070633"
       width="2.0964875"
       id="rect2229"
       style="fill:#a7a7a7;fill-opacity:1;stroke:#a7a7a7;stroke-width:0.19992396;stroke-linecap:round;stroke-miterlimit:4;stroke-dasharray:none;stroke-opacity:1;paint-order:normal"
       inkscape:export-xdpi="96"
       inkscape:export-ydpi="96"
       inkscape:export-filename="C:\Users\hoelznerm\Desktop\32px.png" />
    <rect
       ry="0.12538408"
       rx="0.12607531"
       y="101.90491"
       x="112.93662"
       height="3.6240263"
       width="3.6240261"
       id="rect2231"
       style="fill:none;fill-opacity:1;stroke:#a7a7a7;stroke-width:0.34472379;stroke-linecap:round;stroke-miterlimit:4;stroke-dasharray:none;stroke-opacity:1;paint-order:normal"
       inkscape:export-xdpi="96"
       inkscape:export-ydpi="96"
       inkscape:export-filename="C:\Users\hoelznerm\Desktop\32px.png" />
    <path
       style="fill:#a7a7a7;fill-opacity:1;stroke:none;stroke-width:0.76959765;stroke-linecap:round;stroke-miterlimit:4;stroke-dasharray:none;stroke-opacity:1;paint-order:normal"
       d="m 131.28838,91.203821 v 0.265151 h 0.26528 v -0.265151 z m 0,0.530302 v 0.26515 h 0.26528 v -0.26515 z m 0,0.530301 v 0.26515 h 0.26528 v -0.26515 z m 0,0.530301 v 0.26515 h 0.26528 v -0.26515 z m 0,0.530302 v 0.265148 h 0.26528 v -0.265148 z m 0,0.530301 v 0.265151 h 0.26528 v -0.265151 z m 0,0.5303 v 0.265152 h 0.26528 v -0.265152 z m 0,0.530303 v 0.265149 h 0.26528 v -0.265149 z m 0,0.530301 v 0.26515 h 0.26528 v -0.26515 z m 0,0.5303 v 0.265152 h 0.26528 v -0.265152 z m 0,0.530302 v 0.26515 h 0.26528 v -0.26515 z m 0,0.530301 v 0.26515 h 0.26528 v -0.26515 z m 0,0.530301 v 0.26515 h 0.26528 v -0.26515 z m 0,0.5303 v 0.265151 h 0.26528 v -0.265151 z m 0,0.530302 v 0.265151 h 0.26528 v -0.265151 z m 0,0.530301 v 0.265151 h 0.26528 v -0.265151 z m 0,0.530301 v 0.265151 h 0.26528 V 99.68864 Z m 0,0.5303 v 0.26515 h 0.26528 v -0.26515 z m 0,0.5303 v 0.26515 h 0.26528 v -0.26515 z m 0,0.5303 v 0.26515 h 0.26528 v -0.26515 z m 0,0.53031 v 0.26515 h 0.26528 v -0.26515 z m 0,0.5303 v 0.26515 h 0.26528 v -0.26515 z m 0,0.5303 v 0.26515 h 0.26528 v -0.26515 z m 0,0.5303 v 0.26515 h 0.26528 v -0.26515 z m 0,0.5303 v 0.26515 h 0.26528 v -0.26515 z m 0,0.5303 v 0.26515 h 0.26528 v -0.26515 z m 0,0.5303 v 0.26515 h 0.26528 v -0.26515 z m 0,0.5303 v 0.26515 h 0.26528 v -0.26515 z m 0,0.5303 v 0.26515 h 0.26528 v -0.26515 z m 0,0.53031 v 0.26515 h 0.26528 v -0.26515 z m 0,0.5303 v 0.26515 h 0.26528 v -0.26515 z m 0,0.5303 v 0.26515 h 0.26528 v -0.26515 z m 0,0.5303 v 0.26515 h 0.26528 v -0.26515 z m 0,0.5303 v 0.26515 h 0.26528 v -0.26515 z m 0,0.5303 v 0.26515 h 0.26528 v -0.26515 z m 0,0.5303 v 0.26515 h 0.26528 v -0.26515 z m 0,0.5303 v 0.26515 h 0.26528 v -0.26515 z m 0,0.5303 v 0.26516 h 0.26528 v -0.26516 z m 0,0.53031 v 0.26515 h 0.26528 v -0.26515 z m 0,0.5303 v 0.26515 h 0.26528 v -0.26515 z m 0,0.5303 v 0.26515 h 0.26528 v -0.26515 z m 0,0.5303 v 0.26515 h 0.26528 v -0.26515 z m 0,0.5303 v 0.26515 h 0.26528 v -0.26515 z m 0,0.5303 v 0.26515 h 0.26528 v -0.26515 z m 0,0.5303 v 0.26515 h 0.26528 v -0.26515 z m 0,0.5303 v 0.26515 h 0.26528 v -0.26515 z m 0,0.53031 v 0.26515 h 0.26528 v -0.26515 z m 0,0.5303 v 0.26515 h 0.26528 v -0.26515 z"
       id="path2275"
       inkscape:connector-curvature="0"
       inkscape:export-xdpi="96"
       inkscape:export-ydpi="96"
       inkscape:export-filename="C:\Users\hoelznerm\Desktop\32px.png" />
  </g>
</svg>
